<?xml version="1.0" encoding="utf-8"?>
<!-- Generator: Adobe Illustrator 16.0.0, SVG Export Plug-In . SVG Version: 6.00 Build 0)  -->
<!DOCTYPE svg PUBLIC "-//W3C//DTD SVG 1.1//EN" "http://www.w3.org/Graphics/SVG/1.1/DTD/svg11.dtd" [
	<!ENTITY ns_extend "http://ns.adobe.com/Extensibility/1.0/">
	<!ENTITY ns_ai "http://ns.adobe.com/AdobeIllustrator/10.0/">
	<!ENTITY ns_graphs "http://ns.adobe.com/Graphs/1.0/">
	<!ENTITY ns_vars "http://ns.adobe.com/Variables/1.0/">
	<!ENTITY ns_imrep "http://ns.adobe.com/ImageReplacement/1.0/">
	<!ENTITY ns_sfw "http://ns.adobe.com/SaveForWeb/1.0/">
	<!ENTITY ns_custom "http://ns.adobe.com/GenericCustomNamespace/1.0/">
	<!ENTITY ns_adobe_xpath "http://ns.adobe.com/XPath/1.0/">
]>
<svg version="1.1" xmlns:x="&ns_extend;" xmlns:i="&ns_ai;" xmlns:graph="&ns_graphs;"
	 xmlns="http://www.w3.org/2000/svg" xmlns:xlink="http://www.w3.org/1999/xlink" x="0px" y="0px" width="853px"
	 height="1117.742px" viewBox="0 0 853 1117.742" enable-background="new 0 0 853 1117.742" xml:space="preserve">
<metadata>
	<sfw  xmlns="&ns_sfw;">
		<slices></slices>
		<sliceSourceBounds  width="16383" height="16383" y="-9010" x="-7127" bottomLeftOrigin="true"></sliceSourceBounds>
	</sfw>
</metadata>
<g id="Calque_7" display="none">
</g>
<g id="Calque_3" display="none">
</g>
<g id="N_x26_B" display="none">
</g>
<g id="Calque_8">
</g>
<g id="Calque_11">
</g>
<g id="Calque_9" display="none">
</g>
<g id="Calque_10">
	<g>
		<polygon fill="#2E2424" points="405.279,1117.742 0.5,1117.742 0.5,0 417.67,13.489 		"/>
		<polyline fill="#2E2424" points="0,0.25 853,17.242 843,295.201 313.333,290.742 		"/>
		<polygon fill="#C7A697" points="142,573.83 188.57,600.885 234.148,646.949 252.833,664.159 341.159,573.83 412.5,515.458 
			339.461,449.644 297.845,399.742 228.203,494.811 		"/>
		<polygon fill="#634747" points="57.5,415.742 105.5,379.742 255.047,537.574 213.016,578.399 		"/>
		<polygon fill="#2E2424" points="106.5,407.742 90.5,407.742 84.167,417.909 91.5,430.743 106.167,432.408 114.293,420.075 		"/>
		<polygon fill="#2E2424" points="119.5,459.742 119.5,446.742 132.833,440.408 147.5,450.075 147.5,459.742 137.5,468.742 
			125.5,468.742 		"/>
		<polygon fill="#2E2424" points="193.583,534.326 198.5,521.742 214.5,521.742 223.833,533.992 219.167,543.408 205.5,546.075 		
			"/>
		<polygon fill="#7A7078" points="71.833,615.253 184.417,630.316 189.458,626.408 192.813,630.316 190.167,659.742 180.5,659.742 
			180.833,655.741 68.833,640.408 64.167,625.075 		"/>
		<polygon fill="#C3C9D2" points="70.965,626.532 78.167,621.138 177.5,634.41 177.5,637.742 		"/>
		<polygon fill="#120F23" points="192.813,635.076 209.5,629.44 229.5,621.138 243.5,637.742 236.833,666.242 220.833,669.076 
			213,659.742 199.5,659.742 196.167,645.107 		"/>
		<polygon fill="#120F23" points="196.833,689.242 203.5,675.159 214,677.785 220.833,689.263 213,694.742 203.5,694.742 		"/>
		<polygon fill="#C3C9D2" points="159.106,508.402 150.729,500.215 151.509,487.817 154.807,482.502 164.131,475.653 
			175.941,476.396 183.742,484.323 186.692,493.972 182.613,502.277 171.507,509.182 		"/>
		<polygon fill="#7A7078" points="178.787,485.591 180.223,493.045 175.46,500.799 172.008,503.315 164.628,505.06 158.237,501.135 
			156.563,493.829 158.245,486.792 163.426,482.656 172.076,481.469 		"/>
		<polygon fill="#4D3836" points="64.06,410.822 57.5,401.076 68.5,391.409 77.553,400.702 89.944,391.409 84.167,382.409 
			94.5,376.076 99.23,384.444 		"/>
		<polygon fill="#4D3836" points="218.499,573.074 225.5,578.399 232.167,573.074 228.132,563.716 241.152,551.071 246.5,556.076 
			255.047,546.075 249.615,542.85 		"/>
		<polygon fill="#2E2424" points="292.5,432.742 292.5,449.742 306.5,449.742 306.5,460.742 322.167,463.743 329.5,488.742 
			334.167,486.242 325.917,454.575 310.5,457.077 310.5,446.742 298.5,443.743 298.5,432.742 		"/>
		<polygon fill="#2E2424" points="273.5,461.199 288.5,463.743 288.5,475.742 301.25,475.653 310.5,481.469 310.5,492.742 
			303.5,483.742 289.25,481.469 283.5,476.845 283.5,466.742 273.5,466.242 		"/>
		<polygon fill="#7A7078" points="108.5,99.992 103.293,153.242 114.965,208.201 157.71,250.742 230.773,257.742 304.5,227.992 
			323.167,165.742 318.5,109.169 282.235,53.742 220.237,41.394 139.729,58.742 		"/>
		<polygon fill="#C3C9D2" points="201.441,184.975 185.918,169.806 187.363,146.832 193.475,136.985 210.751,124.293 
			232.636,125.67 247.09,140.358 252.556,158.238 244.998,173.626 224.419,186.421 		"/>
		<polygon fill="#7A7078" points="210,139.742 198.583,150.909 200.273,164.888 210,173.742 228.5,173.742 235.5,161.408 
			235.5,146.742 223,139.742 		"/>
		<polygon fill="#C3C9D2" points="132.394,100.742 156.563,84.742 184.5,84.742 184.5,99.742 156.563,116.742 133.5,116.742 		"/>
		<polygon fill="#C3C9D2" points="125.5,134.742 145.5,134.742 141,156.742 145.5,176.742 132.5,176.742 122.232,156.742 		"/>
		<polygon fill="#7A7078" points="283.208,694.688 259.46,757.338 238.473,767.563 231.738,785.33 243.155,800.351 246.345,791.936 
			250.953,779.78 259.271,777.585 270.589,787.223 262.791,807.795 285.551,792.895 274.598,762.542 306.585,703.55 		"/>
		<polygon fill="#634747" points="585.466,55.073 567.635,234.46 791.468,250.742 796.406,53.242 		"/>
		<polygon fill="#C7A697" points="484.979,71.78 444.091,89.45 390.013,97.033 369.046,100.971 393.182,204.706 402.204,281.26 
			483.117,265.14 533.735,250.742 501.973,168.491 		"/>
		<polygon fill="#2E2424" points="431.255,147.742 442.833,125.178 457.5,115.996 449.5,108.411 450.833,102.41 472.833,119.743 
			459.5,134.409 456.833,129.742 460.833,122.067 445.5,133.083 440.167,147.742 		"/>
		<polygon fill="#2E2424" points="437.867,216.358 440.368,234.742 454.747,234.742 461.678,225.55 457.664,213.53 		"/>
		<polygon fill="#2E2424" points="430.012,164.742 416.549,173.167 413.554,189.932 421.647,201.2 435.703,206.259 437.867,218.742 
			444.744,218.742 440.368,203.232 433.491,196.184 422.656,191.688 425.156,172.986 445.155,169.335 462.5,180.651 462.5,196.56 
			449.5,206.106 449.5,216.711 457.5,215.651 457.5,209.287 468.5,195.5 468.5,179.59 455.164,167.41 441.027,164.742 		"/>
		<polygon fill="#2E2424" points="447.5,189.075 441.527,194.242 447.5,223.075 		"/>
	</g>
</g>
<g id="Texture">
</g>
<g id="Repères" display="none">
</g>
<g id="Masque">
</g>
<g id="Masque_écran" display="none">
</g>
</svg>
