<?xml version="1.0" encoding="utf-8"?>
<!-- Generator: Adobe Illustrator 16.0.0, SVG Export Plug-In . SVG Version: 6.00 Build 0)  -->
<!DOCTYPE svg PUBLIC "-//W3C//DTD SVG 1.1//EN" "http://www.w3.org/Graphics/SVG/1.1/DTD/svg11.dtd" [
	<!ENTITY ns_extend "http://ns.adobe.com/Extensibility/1.0/">
	<!ENTITY ns_ai "http://ns.adobe.com/AdobeIllustrator/10.0/">
	<!ENTITY ns_graphs "http://ns.adobe.com/Graphs/1.0/">
	<!ENTITY ns_vars "http://ns.adobe.com/Variables/1.0/">
	<!ENTITY ns_imrep "http://ns.adobe.com/ImageReplacement/1.0/">
	<!ENTITY ns_sfw "http://ns.adobe.com/SaveForWeb/1.0/">
	<!ENTITY ns_custom "http://ns.adobe.com/GenericCustomNamespace/1.0/">
	<!ENTITY ns_adobe_xpath "http://ns.adobe.com/XPath/1.0/">
]>
<svg version="1.1" xmlns:x="&ns_extend;" xmlns:i="&ns_ai;" xmlns:graph="&ns_graphs;"
	 xmlns="http://www.w3.org/2000/svg" xmlns:xlink="http://www.w3.org/1999/xlink" x="0px" y="0px" width="145px" height="265.337px"
	 viewBox="0 0 145 265.337" enable-background="new 0 0 145 265.337" xml:space="preserve">
<metadata>
	<sfw  xmlns="&ns_sfw;">
		<slices></slices>
		<sliceSourceBounds  height="16383" width="16383" x="-7127" y="-9010" bottomLeftOrigin="true"></sliceSourceBounds>
		<optimizationSettings>
			<targetSettings  fileFormat="PNG24Format" targetSettingsID="0">
				<PNG24Format  transparency="true" filtered="false" matteColor="#FFFFFF" noMatteColor="false" interlaced="false">
					</PNG24Format>
			</targetSettings>
		</optimizationSettings>
	</sfw>
</metadata>
<g id="Calque_7" display="none">
</g>
<g id="Calque_3" display="none">
</g>
<g id="N_x26_B" display="none">
</g>
<g id="Calque_8">
</g>
<g id="Calque_11">
</g>
<g id="Calque_9" display="none">
</g>
<g id="Calque_10">
	<g>
		<polygon fill="#634747" points="0,77.837 3.5,22.337 37.107,0 77.5,22.337 87.432,61.228 113.637,163.837 145,252.587 
			133,265.337 117,258.337 96,204.337 71.5,176.462 		"/>
		<polygon fill="#7A5461" points="12.001,31.003 7.535,46.291 12.797,49.337 18,49.337 30.046,38.777 24.001,28.248 		"/>
		<polygon fill="#7A5461" points="34,43.17 32,49.291 36.797,52.337 42,52.337 42.791,48.67 39.899,44.337 		"/>
		<polygon fill="#4D3836" points="77.5,22.337 80,82.337 80,123.671 101.75,176.337 138,250.337 138.178,259.837 145,252.587 
			113.637,163.837 		"/>
	</g>
</g>
<g id="Texture">
</g>
<g id="Repères" display="none">
</g>
<g id="Masque">
</g>
<g id="Masque_écran" display="none">
</g>
</svg>
