<?xml version="1.0" encoding="utf-8"?>
<!-- Generator: Adobe Illustrator 16.0.0, SVG Export Plug-In . SVG Version: 6.00 Build 0)  -->
<!DOCTYPE svg PUBLIC "-//W3C//DTD SVG 1.1//EN" "http://www.w3.org/Graphics/SVG/1.1/DTD/svg11.dtd" [
	<!ENTITY ns_extend "http://ns.adobe.com/Extensibility/1.0/">
	<!ENTITY ns_ai "http://ns.adobe.com/AdobeIllustrator/10.0/">
	<!ENTITY ns_graphs "http://ns.adobe.com/Graphs/1.0/">
	<!ENTITY ns_vars "http://ns.adobe.com/Variables/1.0/">
	<!ENTITY ns_imrep "http://ns.adobe.com/ImageReplacement/1.0/">
	<!ENTITY ns_sfw "http://ns.adobe.com/SaveForWeb/1.0/">
	<!ENTITY ns_custom "http://ns.adobe.com/GenericCustomNamespace/1.0/">
	<!ENTITY ns_adobe_xpath "http://ns.adobe.com/XPath/1.0/">
]>
<svg version="1.1" xmlns:x="&ns_extend;" xmlns:i="&ns_ai;" xmlns:graph="&ns_graphs;"
	 xmlns="http://www.w3.org/2000/svg" xmlns:xlink="http://www.w3.org/1999/xlink" x="0px" y="0px" width="516.005px"
	 height="431.831px" viewBox="0 0 516.005 431.831" enable-background="new 0 0 516.005 431.831" xml:space="preserve">
<metadata>
	<sfw  xmlns="&ns_sfw;">
		<slices></slices>
		<sliceSourceBounds  width="16383" height="16383" y="-9010" x="-7127" bottomLeftOrigin="true"></sliceSourceBounds>
	</sfw>
</metadata>
<g id="Calque_7" display="none">
</g>
<g id="Calque_3" display="none">
</g>
<g id="N_x26_B" display="none">
</g>
<g id="Calque_8">
</g>
<g id="Calque_11">
</g>
<g id="Calque_9" display="none">
</g>
<g id="Calque_10">
	<g>
		<polygon fill="#3D3B45" points="0,186.128 366.5,0 516.005,259.128 96.546,431.831 		"/>
		<polygon fill="#16182B" points="20,200.628 360,21.462 493.16,253.712 109,403.43 		"/>
		<polygon fill="#3D3B45" points="120.713,147.556 229,367.128 242.098,352.874 129.624,129.695 		"/>
		<polygon fill="#3D3B45" points="242,77.197 365.951,316.381 380.009,300.48 252.556,64.628 242,71.198 		"/>
		<polygon fill="#3D3B45" points="418.981,112.878 47,289.128 49,304.128 428.5,121.628 		"/>
		<line fill="none" stroke="#3D3B45" stroke-width="3" stroke-miterlimit="10" x1="47" y1="173.192" x2="145.17" y2="399.628"/>
		<line fill="none" stroke="#3D3B45" stroke-width="3" stroke-miterlimit="10" x1="91" y1="160.182" x2="184.826" y2="374.628"/>
		
			<line fill="none" stroke="#3D3B45" stroke-width="3" stroke-miterlimit="10" x1="168.622" y1="103.628" x2="286.454" y2="347.378"/>
		
			<line fill="none" stroke="#3D3B45" stroke-width="3" stroke-miterlimit="10" x1="199.415" y1="84.854" x2="329.114" y2="327.628"/>
		<line fill="none" stroke="#3D3B45" stroke-width="3" stroke-miterlimit="10" x1="286.454" y1="54.698" x2="419.109" y2="290.75"/>
		
			<line fill="none" stroke="#3D3B45" stroke-width="3" stroke-miterlimit="10" x1="318.615" y1="36.149" x2="447.608" y2="280.128"/>
		<line fill="none" stroke="#3D3B45" stroke-width="3" stroke-miterlimit="10" x1="34.085" y1="248.411" x2="406.281" y2="64.628"/>
		
			<line fill="none" stroke="#3D3B45" stroke-width="3" stroke-miterlimit="10" x1="78.626" y1="356.753" x2="464.198" y2="190.505"/>
	</g>
</g>
<g id="Texture">
</g>
<g id="Repères" display="none">
</g>
<g id="Masque">
</g>
<g id="Masque_écran" display="none">
</g>
</svg>
