<?xml version="1.0" encoding="utf-8"?>
<!-- Generator: Adobe Illustrator 16.0.0, SVG Export Plug-In . SVG Version: 6.00 Build 0)  -->
<!DOCTYPE svg PUBLIC "-//W3C//DTD SVG 1.1//EN" "http://www.w3.org/Graphics/SVG/1.1/DTD/svg11.dtd" [
	<!ENTITY ns_extend "http://ns.adobe.com/Extensibility/1.0/">
	<!ENTITY ns_ai "http://ns.adobe.com/AdobeIllustrator/10.0/">
	<!ENTITY ns_graphs "http://ns.adobe.com/Graphs/1.0/">
	<!ENTITY ns_vars "http://ns.adobe.com/Variables/1.0/">
	<!ENTITY ns_imrep "http://ns.adobe.com/ImageReplacement/1.0/">
	<!ENTITY ns_sfw "http://ns.adobe.com/SaveForWeb/1.0/">
	<!ENTITY ns_custom "http://ns.adobe.com/GenericCustomNamespace/1.0/">
	<!ENTITY ns_adobe_xpath "http://ns.adobe.com/XPath/1.0/">
]>
<svg version="1.1" xmlns:x="&ns_extend;" xmlns:i="&ns_ai;" xmlns:graph="&ns_graphs;"
	 xmlns="http://www.w3.org/2000/svg" xmlns:xlink="http://www.w3.org/1999/xlink" x="0px" y="0px" width="186.5px" height="80.25px"
	 viewBox="0 0 186.5 80.25" enable-background="new 0 0 186.5 80.25" xml:space="preserve">
<metadata>
	<sfw  xmlns="&ns_sfw;">
		<slices></slices>
		<sliceSourceBounds  height="16383" width="16383" x="-7127" y="-9010" bottomLeftOrigin="true"></sliceSourceBounds>
		<optimizationSettings>
			<targetSettings  fileFormat="PNG24Format" targetSettingsID="0">
				<PNG24Format  transparency="true" filtered="false" matteColor="#FFFFFF" noMatteColor="false" interlaced="false">
					</PNG24Format>
			</targetSettings>
		</optimizationSettings>
	</sfw>
</metadata>
<g id="Calque_7" display="none">
</g>
<g id="Calque_3" display="none">
</g>
<g id="N_x26_B" display="none">
</g>
<g id="Calque_8">
</g>
<g id="Calque_11">
</g>
<g id="Calque_9" display="none">
</g>
<g id="Calque_10">
	<g>
		<polygon fill="#7A7078" points="2.5,80.25 64.5,52.125 117.5,24.563 154.89,8.001 186.5,3 186.5,0 153.923,5.324 116,22 63,47 
			0,77 		"/>
		<polygon fill="#D9B897" points="58.5,43 58.5,49 61.126,53.761 69,56 77.5,56 86.75,47.5 103.5,39.125 118.5,37 122.5,31 
			122.5,23 120.329,20.311 110.5,16.5 100.5,22 79,32.5 63.5,36.25 		"/>
		<polygon fill="#4A2933" points="73.347,33.867 79.5,41.5 82.951,50.991 86.75,47.5 83.764,38.25 79,32.5 75.5,33 		"/>
		<polygon fill="#304C66" points="83.764,30.174 88,36.441 90.5,45.625 95.5,43.125 94,33.75 90.5,26.884 		"/>
	</g>
</g>
<g id="Texture">
</g>
<g id="Repères" display="none">
</g>
<g id="Masque">
</g>
<g id="Masque_écran" display="none">
</g>
</svg>
