<?xml version="1.0" encoding="utf-8"?>
<!-- Generator: Adobe Illustrator 16.0.0, SVG Export Plug-In . SVG Version: 6.00 Build 0)  -->
<!DOCTYPE svg PUBLIC "-//W3C//DTD SVG 1.1//EN" "http://www.w3.org/Graphics/SVG/1.1/DTD/svg11.dtd" [
	<!ENTITY ns_extend "http://ns.adobe.com/Extensibility/1.0/">
	<!ENTITY ns_ai "http://ns.adobe.com/AdobeIllustrator/10.0/">
	<!ENTITY ns_graphs "http://ns.adobe.com/Graphs/1.0/">
	<!ENTITY ns_vars "http://ns.adobe.com/Variables/1.0/">
	<!ENTITY ns_imrep "http://ns.adobe.com/ImageReplacement/1.0/">
	<!ENTITY ns_sfw "http://ns.adobe.com/SaveForWeb/1.0/">
	<!ENTITY ns_custom "http://ns.adobe.com/GenericCustomNamespace/1.0/">
	<!ENTITY ns_adobe_xpath "http://ns.adobe.com/XPath/1.0/">
]>
<svg version="1.1" xmlns:x="&ns_extend;" xmlns:i="&ns_ai;" xmlns:graph="&ns_graphs;"
	 xmlns="http://www.w3.org/2000/svg" xmlns:xlink="http://www.w3.org/1999/xlink" x="0px" y="0px" width="139px" height="143.5px"
	 viewBox="0 0 139 143.5" enable-background="new 0 0 139 143.5" xml:space="preserve">
<metadata>
	<sfw  xmlns="&ns_sfw;">
		<slices></slices>
		<sliceSourceBounds  height="16383" width="16383" x="-7127" y="-9010" bottomLeftOrigin="true"></sliceSourceBounds>
		<optimizationSettings>
			<targetSettings  fileFormat="PNG24Format" targetSettingsID="0">
				<PNG24Format  transparency="true" filtered="false" matteColor="#FFFFFF" noMatteColor="false" interlaced="false">
					</PNG24Format>
			</targetSettings>
		</optimizationSettings>
	</sfw>
</metadata>
<g id="Calque_7" display="none">
</g>
<g id="Calque_3" display="none">
</g>
<g id="N_x26_B" display="none">
</g>
<g id="Calque_8">
</g>
<g id="Calque_11">
</g>
<g id="Calque_9" display="none">
</g>
<g id="Calque_10">
	<g>
		<polygon fill="#7A7078" points="12,35 0,35 0,41 12,46 12,58 6,67 12,73 22,68 37,73.208 44.5,88 54,88 54,75.5 72.5,62 87,62 
			91,53 76.667,44 73,26 78.667,12.667 66.667,3.334 58.5,13 40.732,12 30,0 19.403,4.637 23,17 		"/>
		<polygon fill="#2E2424" points="34,37.5 42.25,34.5 51.875,36 56.938,44 52.5,54 39.5,56 31,48 		"/>
		<polygon fill="#C3C9D2" points="68.773,79.5 73.887,92 71.475,102 57,105 59.5,116 74,116 84,123 81,140.5 88,143.5 97,130.5 
			109.5,126.5 123,136.5 130.5,132 121.5,116.5 122.5,101.5 139,96 137.5,88 120,88 112,79.5 112.354,64.984 101.417,63.629 
			96.5,78 85,81.5 75,73.5 		"/>
		<polygon fill="#2E2424" points="89,97 89,107 96.5,114 108,109.5 108,100 100,93 		"/>
	</g>
</g>
<g id="Texture">
</g>
<g id="Repères" display="none">
</g>
<g id="Masque">
</g>
<g id="Masque_écran" display="none">
</g>
</svg>
