<?xml version="1.0" encoding="utf-8"?>
<!-- Generator: Adobe Illustrator 16.0.0, SVG Export Plug-In . SVG Version: 6.00 Build 0)  -->
<!DOCTYPE svg PUBLIC "-//W3C//DTD SVG 1.1//EN" "http://www.w3.org/Graphics/SVG/1.1/DTD/svg11.dtd" [
	<!ENTITY ns_extend "http://ns.adobe.com/Extensibility/1.0/">
	<!ENTITY ns_ai "http://ns.adobe.com/AdobeIllustrator/10.0/">
	<!ENTITY ns_graphs "http://ns.adobe.com/Graphs/1.0/">
	<!ENTITY ns_vars "http://ns.adobe.com/Variables/1.0/">
	<!ENTITY ns_imrep "http://ns.adobe.com/ImageReplacement/1.0/">
	<!ENTITY ns_sfw "http://ns.adobe.com/SaveForWeb/1.0/">
	<!ENTITY ns_custom "http://ns.adobe.com/GenericCustomNamespace/1.0/">
	<!ENTITY ns_adobe_xpath "http://ns.adobe.com/XPath/1.0/">
]>
<svg version="1.1" xmlns:x="&ns_extend;" xmlns:i="&ns_ai;" xmlns:graph="&ns_graphs;"
	 xmlns="http://www.w3.org/2000/svg" xmlns:xlink="http://www.w3.org/1999/xlink" x="0px" y="0px" width="963.923px"
	 height="1012.872px" viewBox="0 0 963.923 1012.872" enable-background="new 0 0 963.923 1012.872" xml:space="preserve">
<metadata>
	<sfw  xmlns="&ns_sfw;">
		<slices></slices>
		<sliceSourceBounds  width="16383" height="16383" y="-9010" x="-7127" bottomLeftOrigin="true"></sliceSourceBounds>
	</sfw>
</metadata>
<g id="Calque_7" display="none">
</g>
<g id="Calque_3" display="none">
</g>
<g id="N_x26_B" display="none">
</g>
<g id="Calque_8">
</g>
<g id="Calque_11">
</g>
<g id="Calque_9" display="none">
</g>
<g id="Calque_10">
	<g>
		<polygon fill="#54333B" points="381.039,0 335.693,71 249.025,134 191.693,223.793 123.693,273.5 0,394 66.202,454.284 
			168.017,547 334.693,664.837 381.039,755.676 510.051,940.864 609.202,1012.872 759.693,878.133 853.371,775.5 963.923,717 
			804.081,477 688.193,344.5 528.053,191 		"/>
		<polygon fill="#4A2933" points="173.193,353 269.693,278.5 331.193,179 410.693,114.073 447.924,86.897 483.41,133 411.693,187 
			339.693,299.158 217.193,406.5 105.893,490.428 45.574,435.5 		"/>
		<polygon fill="#4A2933" points="864.381,567.541 725.542,680 607.193,841.5 504.668,933.138 564.643,980.512 673.193,869 
			795.193,705.5 910.197,636.331 		"/>
		<polygon fill="#4A2933" points="184.193,452 184.193,506 268.193,527 269.193,435.5 		"/>
		<polygon fill="#4A2933" points="323.193,338 323.193,400 382.193,407.101 382.193,352 		"/>
		<polygon fill="#4A2933" points="435.656,208.945 436.638,263.635 504.193,278.106 504.193,224 		"/>
		<polygon fill="#4A2933" points="490.193,781 490.193,842 553.193,853.579 553.193,795 		"/>
		<polygon fill="#4A2933" points="613.978,660.459 621.26,710 668.193,710 668.193,671 		"/>
		<polygon fill="#4A2933" points="734.193,533 734.193,585 792.193,602.09 792.193,552 		"/>
		<polygon fill="#4A2933" points="18.858,411.172 184.193,288.663 292.961,162 421.587,52.68 429.531,63 311.274,168.113 
			217.193,288.663 105.784,372.5 31.465,422.652 		"/>
		<polygon fill="#4A2933" points="570.824,985 686.255,882.078 807.75,721.586 919.3,650 926.556,660.895 813.75,742.585 
			707.433,887.5 613.978,980.512 583.015,993.854 		"/>
		<polygon fill="#4A2933" points="317.49,435.5 302.383,543 366.825,616.5 461.267,751 592.193,751 584.26,645.5 490.193,533 
			410.656,442.6 		"/>
		<polygon fill="#4A2933" points="429.531,311 422.193,407 504.193,481.25 570.824,543.25 629.008,619 707.433,619 701.254,506.25 
			618.193,396 527.193,311 		"/>
	</g>
</g>
<g id="Texture">
</g>
<g id="Repères" display="none">
</g>
<g id="Masque">
</g>
<g id="Masque_écran" display="none">
</g>
</svg>
