<?xml version="1.0" encoding="utf-8"?>
<!-- Generator: Adobe Illustrator 16.0.0, SVG Export Plug-In . SVG Version: 6.00 Build 0)  -->
<!DOCTYPE svg PUBLIC "-//W3C//DTD SVG 1.1//EN" "http://www.w3.org/Graphics/SVG/1.1/DTD/svg11.dtd" [
	<!ENTITY ns_extend "http://ns.adobe.com/Extensibility/1.0/">
	<!ENTITY ns_ai "http://ns.adobe.com/AdobeIllustrator/10.0/">
	<!ENTITY ns_graphs "http://ns.adobe.com/Graphs/1.0/">
	<!ENTITY ns_vars "http://ns.adobe.com/Variables/1.0/">
	<!ENTITY ns_imrep "http://ns.adobe.com/ImageReplacement/1.0/">
	<!ENTITY ns_sfw "http://ns.adobe.com/SaveForWeb/1.0/">
	<!ENTITY ns_custom "http://ns.adobe.com/GenericCustomNamespace/1.0/">
	<!ENTITY ns_adobe_xpath "http://ns.adobe.com/XPath/1.0/">
]>
<svg version="1.1" xmlns:x="&ns_extend;" xmlns:i="&ns_ai;" xmlns:graph="&ns_graphs;"
	 xmlns="http://www.w3.org/2000/svg" xmlns:xlink="http://www.w3.org/1999/xlink" x="0px" y="0px" width="164.717px"
	 height="125.061px" viewBox="0 0 164.717 125.061" enable-background="new 0 0 164.717 125.061" xml:space="preserve">
<metadata>
	<sfw  xmlns="&ns_sfw;">
		<slices></slices>
		<sliceSourceBounds  width="16383" height="16383" x="-7127" y="-9010" bottomLeftOrigin="true"></sliceSourceBounds>
	</sfw>
</metadata>
<g id="Calque_7">
</g>
<g id="Calque_3">
	<polygon fill="#969EA8" points="67.5,32.03 63.417,102.582 108.042,118.896 146.688,87.531 123.344,23.517 57.339,6.842 
		8.003,48.504 8.668,87.502 12,90.5 12,107.501 0,106.5 0,92.167 5,87.5 5,48.5 56.053,0 126.605,19.5 153.937,87.5 109,125.061 
		56.108,102.457 63.608,29.75 99,0.5 138,0.5 163.333,15.833 164.717,33.47 154.333,59.499 121.473,81.885 100.333,76.166 
		94.333,72.166 84.833,72.833 79.667,62.53 83.333,59.834 80.667,54.167 83,53.167 84.833,58.167 90,55.501 88.333,50.501 
		90.333,49.501 92.333,54.834 96.667,54.167 100,62.53 98.802,68.312 105.922,72.238 120.333,75.501 131.667,69.834 152,54.5 
		159,32.5 155.667,18.167 134.667,6.167 104.333,5.167 92.333,12.167 	"/>
</g>
<g id="feu" display="none">
</g>
<g id="N_x26_B" display="none">
</g>
<g id="Texture">
</g>
<g id="Repères" display="none">
</g>
<g id="Masque" display="none">
	<path display="inline" d="M-1305-2320.5v2648h3496v-2648H-1305z M1418-275.5H-710v-1636h2128V-275.5z"/>
</g>
<g id="Masque_écran" display="none">
</g>
</svg>
