<?xml version="1.0" encoding="utf-8"?>
<!-- Generator: Adobe Illustrator 16.0.0, SVG Export Plug-In . SVG Version: 6.00 Build 0)  -->
<!DOCTYPE svg PUBLIC "-//W3C//DTD SVG 1.1//EN" "http://www.w3.org/Graphics/SVG/1.1/DTD/svg11.dtd" [
	<!ENTITY ns_extend "http://ns.adobe.com/Extensibility/1.0/">
	<!ENTITY ns_ai "http://ns.adobe.com/AdobeIllustrator/10.0/">
	<!ENTITY ns_graphs "http://ns.adobe.com/Graphs/1.0/">
	<!ENTITY ns_vars "http://ns.adobe.com/Variables/1.0/">
	<!ENTITY ns_imrep "http://ns.adobe.com/ImageReplacement/1.0/">
	<!ENTITY ns_sfw "http://ns.adobe.com/SaveForWeb/1.0/">
	<!ENTITY ns_custom "http://ns.adobe.com/GenericCustomNamespace/1.0/">
	<!ENTITY ns_adobe_xpath "http://ns.adobe.com/XPath/1.0/">
]>
<svg version="1.1" xmlns:x="&ns_extend;" xmlns:i="&ns_ai;" xmlns:graph="&ns_graphs;"
	 xmlns="http://www.w3.org/2000/svg" xmlns:xlink="http://www.w3.org/1999/xlink" x="0px" y="0px" width="148.917px"
	 height="249.875px" viewBox="0 0 148.917 249.875" enable-background="new 0 0 148.917 249.875" xml:space="preserve">
<metadata>
	<sfw  xmlns="&ns_sfw;">
		<slices></slices>
		<sliceSourceBounds  width="16383" height="16383" y="-9010" x="-7127" bottomLeftOrigin="true"></sliceSourceBounds>
	</sfw>
</metadata>
<g id="Calque_7">
</g>
<g id="feu">
</g>
<g id="N_x26_B" display="none">
</g>
<g id="Calque_10">
</g>
<g id="Calque_3">
	<g>
		<polygon fill="#969EA8" points="32.692,184.396 0,241.779 15.11,249.875 42.552,200.597 45.428,199.888 46.891,197.218 
			45.835,194.786 46.938,192.576 48.995,192.929 50.567,190.135 38.196,182.898 32.991,179.853 31.604,183.219 		"/>
		<path fill="#40809E" d="M138.194,0C136.433,1.156,36.007,182.443,36.007,182.443l11.587,6.615L148.917,8.476L147.364,1.3
			L138.194,0z"/>
		<polygon points="26.174,195.842 41.373,202.716 18.015,244.659 2.404,237.559 		"/>
	</g>
</g>
<g id="Repères" display="none">
</g>
<g id="Masque" display="none">
	<path display="inline" d="M-715.368,44.602v2648h3496v-2648H-715.368z M2007.632,2089.602h-2128v-1636h2128V2089.602z"/>
</g>
<g id="Masque_écran" display="none">
</g>
<g id="sac_fermé">
</g>
<g id="Texture">
</g>
<g id="Texture_-_copie">
</g>
</svg>
