<?xml version="1.0" encoding="utf-8"?>
<!-- Generator: Adobe Illustrator 16.0.0, SVG Export Plug-In . SVG Version: 6.00 Build 0)  -->
<!DOCTYPE svg PUBLIC "-//W3C//DTD SVG 1.1//EN" "http://www.w3.org/Graphics/SVG/1.1/DTD/svg11.dtd" [
	<!ENTITY ns_extend "http://ns.adobe.com/Extensibility/1.0/">
	<!ENTITY ns_ai "http://ns.adobe.com/AdobeIllustrator/10.0/">
	<!ENTITY ns_graphs "http://ns.adobe.com/Graphs/1.0/">
	<!ENTITY ns_vars "http://ns.adobe.com/Variables/1.0/">
	<!ENTITY ns_imrep "http://ns.adobe.com/ImageReplacement/1.0/">
	<!ENTITY ns_sfw "http://ns.adobe.com/SaveForWeb/1.0/">
	<!ENTITY ns_custom "http://ns.adobe.com/GenericCustomNamespace/1.0/">
	<!ENTITY ns_adobe_xpath "http://ns.adobe.com/XPath/1.0/">
]>
<svg version="1.1" xmlns:x="&ns_extend;" xmlns:i="&ns_ai;" xmlns:graph="&ns_graphs;"
	 xmlns="http://www.w3.org/2000/svg" xmlns:xlink="http://www.w3.org/1999/xlink" x="0px" y="0px" width="136.098px"
	 height="93.699px" viewBox="0 0 136.098 93.699" enable-background="new 0 0 136.098 93.699" xml:space="preserve">
<metadata>
	<sfw  xmlns="&ns_sfw;">
		<slices></slices>
		<sliceSourceBounds  width="16383" height="16383" y="-9010" x="-7127" bottomLeftOrigin="true"></sliceSourceBounds>
	</sfw>
</metadata>
<g id="Calque_7">
</g>
<g id="feu">
</g>
<g id="N_x26_B" display="none">
</g>
<g id="Calque_10">
</g>
<g id="Calque_3">
	<g>
		<polygon fill="#8C9CA6" points="49.887,69.092 136.098,12.301 133.952,8.859 46.156,67.49 		"/>
		<polygon fill="#8C9CA6" points="40.221,59.063 130.272,2.955 128.433,0 38.414,55.066 		"/>
		<polygon fill="#40809E" points="56.181,73.711 49.784,77.698 40.777,79.21 34.594,85.114 20.815,93.699 7.051,91.343 0,80.027 
			0.813,69.273 14.592,60.688 26.272,57.508 30.338,50.876 38.211,45.97 		"/>
		<polygon fill="#969EA8" points="13.269,84.054 14.496,76.979 7.291,74.459 5.269,82.728 10.867,87.601 		"/>
		<polygon fill="#969EA8" points="15.151,71.865 16.806,68.146 13.109,65.71 7.574,69.159 10.924,72.95 		"/>
	</g>
</g>
<g id="Repères" display="none">
</g>
<g id="Masque" display="none">
</g>
<g id="Masque_écran" display="none">
</g>
<g id="sac_fermé">
</g>
<g id="Texture">
</g>
<g id="Texture_-_copie">
</g>
</svg>
