<?xml version="1.0" encoding="utf-8"?>
<!-- Generator: Adobe Illustrator 16.0.0, SVG Export Plug-In . SVG Version: 6.00 Build 0)  -->
<!DOCTYPE svg PUBLIC "-//W3C//DTD SVG 1.1//EN" "http://www.w3.org/Graphics/SVG/1.1/DTD/svg11.dtd" [
	<!ENTITY ns_extend "http://ns.adobe.com/Extensibility/1.0/">
	<!ENTITY ns_ai "http://ns.adobe.com/AdobeIllustrator/10.0/">
	<!ENTITY ns_graphs "http://ns.adobe.com/Graphs/1.0/">
	<!ENTITY ns_vars "http://ns.adobe.com/Variables/1.0/">
	<!ENTITY ns_imrep "http://ns.adobe.com/ImageReplacement/1.0/">
	<!ENTITY ns_sfw "http://ns.adobe.com/SaveForWeb/1.0/">
	<!ENTITY ns_custom "http://ns.adobe.com/GenericCustomNamespace/1.0/">
	<!ENTITY ns_adobe_xpath "http://ns.adobe.com/XPath/1.0/">
]>
<svg version="1.1" xmlns:x="&ns_extend;" xmlns:i="&ns_ai;" xmlns:graph="&ns_graphs;"
	 xmlns="http://www.w3.org/2000/svg" xmlns:xlink="http://www.w3.org/1999/xlink" x="0px" y="0px" width="73.633px"
	 height="73.334px" viewBox="0 0 73.633 73.334" enable-background="new 0 0 73.633 73.334" xml:space="preserve">
<metadata>
	<sfw  xmlns="&ns_sfw;">
		<slices></slices>
		<sliceSourceBounds  width="16383" height="16383" y="-9010" x="-7127" bottomLeftOrigin="true"></sliceSourceBounds>
	</sfw>
</metadata>
<g id="Calque_7">
</g>
<g id="feu">
</g>
<g id="N_x26_B" display="none">
</g>
<g id="Calque_10">
</g>
<g id="Calque_3">
	<g>
		<polygon fill="#2B2933" points="0,25.949 3.872,48.479 7.757,71.076 13.326,73.334 70.83,60.923 73.633,56.411 67.508,35.433 
			60.076,10 56.691,10 2.539,21.359 		"/>
		<polygon fill="#969EA8" points="9.307,7 12.691,7 9.307,22.115 5.922,22.596 		"/>
		<polygon fill="#969EA8" points="39.094,1.699 49.29,12.107 52.672,11.134 41.776,0 		"/>
		<polygon fill="#5E4742" points="33.563,41.744 67.508,35.433 60.076,10 56.691,10 8.17,20.188 2.539,21.398 0,25.93 3.872,48.469 
					"/>
	</g>
</g>
<g id="Repères" display="none">
</g>
<g id="Masque" display="none">
</g>
<g id="Masque_écran" display="none">
</g>
<g id="sac_fermé">
</g>
<g id="Texture">
</g>
<g id="Texture_-_copie">
</g>
</svg>
