<?xml version="1.0" encoding="utf-8"?>
<!-- Generator: Adobe Illustrator 15.1.0, SVG Export Plug-In . SVG Version: 6.00 Build 0)  -->
<!DOCTYPE svg PUBLIC "-//W3C//DTD SVG 1.1//EN" "http://www.w3.org/Graphics/SVG/1.1/DTD/svg11.dtd">
<svg version="1.1" id="Calque_1" xmlns="http://www.w3.org/2000/svg" xmlns:xlink="http://www.w3.org/1999/xlink" x="0px" y="0px"
	 width="140.56px" height="161.601px" viewBox="0 0 140.56 161.601" enable-background="new 0 0 140.56 161.601"
	 xml:space="preserve">
<g>
	<polygon fill="#5E3930" points="120.001,17.014 137.5,71 140.56,130.736 131.585,146.667 39.264,161.601 29.025,6 75,6 	"/>
	<polygon fill="#754030" points="9.238,16.773 0,78.087 0,145 39.264,161.601 65.753,157.186 68,119.5 65.5,76.5 52.773,16.773 
		28.775,5.608 	"/>
	<polygon fill="#875E51" points="9.238,16.773 24.667,0 75,0 108.667,5.608 128.667,25.666 131.585,44.035 119.334,66.334 
		106.001,69.666 65.778,52.597 37.5,15 22.001,13 	"/>
	<polygon fill="#754030" points="100.665,52 106,76.333 104.667,94 120.5,90 120,71 114.668,52 	"/>
	<polygon fill="#875E51" points="111,76 110,80.525 114.709,83.926 118.104,79.963 116,76 	"/>
	<polygon fill="#5E3930" points="16.26,34.833 9,99.333 9,131 29.191,143.333 55,137.333 55,90 43.5,34.833 30.433,26.227 	"/>
	<polygon fill="#4F2B30" points="138.206,84.779 131.585,123.333 114.053,138.667 65.753,157.186 131.585,146.667 140.56,130.736 	
		"/>
	<polygon fill="#4F2B30" points="14.424,15.24 29.025,9 45.667,15.667 58.283,42.632 37.5,15 	"/>
</g>
</svg>
