<?xml version="1.0" encoding="utf-8"?>
<!-- Generator: Adobe Illustrator 17.0.2, SVG Export Plug-In . SVG Version: 6.00 Build 0)  -->
<!DOCTYPE svg PUBLIC "-//W3C//DTD SVG 1.1//EN" "http://www.w3.org/Graphics/SVG/1.1/DTD/svg11.dtd">
<svg version="1.1" id="Calque_1" xmlns="http://www.w3.org/2000/svg" xmlns:xlink="http://www.w3.org/1999/xlink" x="0px" y="0px"
	 width="140.56px" height="257.976px" viewBox="0 0 140.56 257.976" enable-background="new 0 0 140.56 257.976"
	 xml:space="preserve">
<g>
	<g opacity="0.28">
		<polygon fill="#5E3930" points="120.001,113.389 137.5,167.375 140.56,227.111 131.585,243.042 39.264,257.976 29.025,102.375 
			75,102.375 		"/>
		<polygon fill="#754030" points="9.238,113.148 0,174.462 0,241.375 39.264,257.976 65.753,253.561 68,215.875 65.5,172.875 
			52.773,113.148 28.775,101.983 		"/>
		<polygon fill="#754030" points="100.665,148.375 106,172.708 104.667,190.375 120.5,186.375 120,167.375 114.668,148.375 		"/>
		<polygon fill="#875E51" points="111,172.375 110,176.9 114.709,180.301 118.104,176.338 116,172.375 		"/>
		<polygon fill="#5E3930" points="16.26,131.208 9,195.708 9,227.375 29.191,239.708 55,233.708 55,186.375 43.5,131.208 
			30.433,122.602 		"/>
		<polygon fill="#4F2B30" points="138.206,181.154 131.585,219.708 114.053,235.042 65.753,253.561 131.585,243.042 140.56,227.111 
					"/>
		<polygon fill="#4F2B30" points="14.424,111.615 29.025,105.375 45.667,112.042 58.283,139.007 37.5,111.375 		"/>
	</g>
	<polygon fill="#5E3930" points="120.001,113.389 137.5,167.375 140.56,227.111 131.585,243.042 39.264,257.976 29.025,102.375 
		75,102.375 	"/>
	<polygon fill="#754030" points="9.238,113.148 0,174.462 0,241.375 39.264,257.976 65.753,253.561 68,215.875 65.5,172.875 
		52.773,113.148 28.775,101.983 	"/>
	<polygon fill="#5E3930" points="16.26,131.208 9,195.708 9,227.375 29.191,239.708 55,233.708 55,186.375 43.5,131.208 
		30.433,122.602 	"/>
	<polygon fill="#4F2B30" points="138.206,181.154 131.585,219.708 114.053,235.042 65.753,253.561 131.585,243.042 140.56,227.111 	
		"/>
	<polygon fill="#754030" points="14.424,111.615 32,94.875 87.475,101.983 120.001,113.389 116,127.559 82.5,139.375 
		58.283,139.375 37.5,111.559 	"/>
	<polygon fill="#754030" points="41.948,6.125 52.5,0 59.612,5.438 52,10.875 52,20.375 36,20.375 	"/>
	<polygon fill="#875E51" points="9.238,113.148 0,74.875 4.619,27.875 36.354,17.396 45.5,14.375 73.381,20.698 89,49.875 
		80,70.375 84.793,90.875 87.475,101.983 46.75,102.875 	"/>
	<polygon fill="#130F12" points="41.5,108.02 55.001,123.902 63,132.375 77,133.086 104.875,125.666 112,117.125 95,106.062 
		79,102.375 47,102.386 26.768,108.079 	"/>
	<polygon fill="#4F2B30" points="87.475,101.983 120.001,113.389 113.803,113.185 112,117.223 95.798,108.682 79,102.375 	"/>
</g>
</svg>
